<svg width="24px" height="24px" viewBox="0 0 24 24" fill="none" xmlns="http://www.w3.org/2000/svg">
<path fill-rule="evenodd" clip-rule="evenodd" d="M11.9584 4.25H12.0416C13.4108 4.24999 14.4957 4.24999 15.3621 4.33812C16.2497 4.42841 16.9907 4.61739 17.639 5.05052C18.1576 5.39707 18.6029 5.84239 18.9495 6.36104C19.3826 7.00926 19.5716 7.7503 19.6619 8.63794C19.75 9.5043 19.75 10.5892 19.75 11.9584V12.0416C19.75 13.4108 19.75 14.4957 19.6619 15.3621C19.5716 16.2497 19.3826 16.9907 18.9495 17.639C18.6029 18.1576 18.1576 18.6029 17.639 18.9495C16.9907 19.3826 16.2497 19.5716 15.3621 19.6619C14.4957 19.75 13.4108 19.75 12.0416 19.75H11.9584C10.5892 19.75 9.5043 19.75 8.63794 19.6619C7.7503 19.5716 7.00926 19.3826 6.36104 18.9495C5.84239 18.6029 5.39707 18.1576 5.05052 17.639C4.61739 16.9907 4.42841 16.2497 4.33812 15.3621C4.24999 14.4957 4.24999 13.4108 4.25 12.0416V11.9584C4.24999 10.5892 4.24999 9.5043 4.33812 8.63794C4.42841 7.7503 4.61739 7.00926 5.05052 6.36104C5.39707 5.84239 5.84239 5.39707 6.36104 5.05052C7.00926 4.61739 7.7503 4.42841 8.63794 4.33812C9.5043 4.24999 10.5892 4.24999 11.9584 4.25ZM9.41603 10.376C9.07138 10.1462 8.60573 10.2393 8.37597 10.584C8.1462 10.9286 8.23933 11.3943 8.58398 11.624L11.0293 13.2542C11.6171 13.6461 12.3829 13.6461 12.9707 13.2542L15.416 11.624C15.7607 11.3943 15.8538 10.9286 15.624 10.584C15.3943 10.2393 14.9286 10.1462 14.584 10.376L12.1387 12.0062C12.0547 12.0621 11.9453 12.0621 11.8613 12.0062L9.41603 10.376Z" fill="black"/>
</svg>
